<svg xmlns="http://www.w3.org/2000/svg" viewBox="0 0 253.94 253"><defs><style>.cls-1{fill:#9c0d17;}.cls-2{fill:#e6e6e6;}.cls-3{fill:#fff;}</style></defs><title>Asset 1</title><g id="Layer_2" data-name="Layer 2"><g id="Layer_1-2" data-name="Layer 1"><path class="cls-1" d="M230.94,121.79V116h0a78.52,78.52,0,1,0-136,53.92V253h92V223h26.23a17.78,17.78,0,0,0,17.77-17.77V171h23Zm-32,18.21a9,9,0,1,1,9-9A9,9,0,0,1,198.94,140Z"/><polygon class="cls-2" points="126.47 93.17 126.47 0 0 0 0 118.23 126.47 118.23 151.37 118.23 126.47 93.17"/><line class="cls-3" x1="98.94" y1="31.77" x2="50.94" y2="31.77"/><rect class="cls-1" x="50.94" y="28.27" width="48" height="7"/><polygon class="cls-1" points="21.28 31.94 23.97 29.25 28.17 33.5 38.88 22.78 41.49 25.48 28.16 38.81 21.28 31.94"/><path class="cls-1" d="M38.87,24.06l1.37,1.42L28.16,37.55l-5.61-5.61L24,30.52l4.2,4.25L38.87,24.06m0-2.55-1.29,1.29-9.44,9.44-2.93-3L24,28,22.7,29.26l-1.42,1.42L20,31.94l1.26,1.26,5.61,5.61,1.26,1.26,1.26-1.26L41.51,26.74l1.24-1.24-1.22-1.26-1.37-1.42-1.26-1.31Z"/><line class="cls-3" x1="98.94" y1="58.54" x2="50.94" y2="58.54"/><rect class="cls-1" x="50.94" y="55.04" width="48" height="7"/><polygon class="cls-1" points="21.28 58.71 23.97 56.03 28.17 60.27 38.88 49.56 41.49 52.26 28.16 65.59 21.28 58.71"/><path class="cls-1" d="M38.87,50.83l1.37,1.42L28.16,64.32l-5.61-5.61L24,57.29l4.2,4.25L38.87,50.83m0-2.55-1.29,1.29L28.17,59l-2.93-3L24,54.76,22.7,56l-1.42,1.42L20,58.71,21.28,60l5.61,5.61,1.26,1.26,1.26-1.26L41.51,53.51l1.24-1.24L41.53,51l-1.37-1.42-1.26-1.31Z"/><line class="cls-3" x1="98.94" y1="85.31" x2="50.94" y2="85.31"/><rect class="cls-1" x="50.94" y="81.81" width="48" height="7"/><polygon class="cls-1" points="21.28 85.48 23.96 82.8 28.16 87.05 38.88 76.33 41.49 79.03 28.16 92.36 21.28 85.48"/><path class="cls-1" d="M38.87,77.6,40.24,79,28.16,91.1l-5.62-5.62L24,84.07l4.2,4.25L38.87,77.6m0-2.55-1.29,1.29-9.44,9.44-2.94-3L24,81.53,22.69,82.8l-1.42,1.42L20,85.48l1.26,1.26,5.62,5.62,1.26,1.26,1.26-1.26L41.5,80.28,42.75,79l-1.22-1.26-1.37-1.42-1.26-1.31Z"/></g></g></svg>