<svg xmlns="http://www.w3.org/2000/svg" viewBox="0 0 296.77 230.67"><defs><style>.cls-1{fill:#9c0d17;}.cls-2{fill:#e6e6e6;}</style></defs><title>Asset 2</title><g id="Layer_2" data-name="Layer 2"><g id="Layer_1-2" data-name="Layer 1"><path class="cls-1" d="M273.77,99.46V93.67h0a78.52,78.52,0,1,0-136,53.92v83.08h92v-30H256a17.78,17.78,0,0,0,17.77-17.77V148.67h23Zm-32,18.21a9,9,0,1,1,9-9A9,9,0,0,1,241.77,117.67Z"/><rect class="cls-2" width="63.59" height="63.59"/><path class="cls-1" d="M31.68,17.11l12.07,5.22.1,8a16.57,16.57,0,0,1-3.31,10.2,14.93,14.93,0,0,1-8.49,6,14.93,14.93,0,0,1-8.64-5.74,16.57,16.57,0,0,1-3.57-10.11l-.1-8Z"/><rect class="cls-2" x="0.25" y="83.54" width="63.59" height="63.59"/><path class="cls-1" d="M41.72,116.61l2.75,2.14a.64.64,0,0,1,.18.85L42,124.12a.53.53,0,0,1-.79.24L38,123.08a12.29,12.29,0,0,1-2.2,1.28l-.49,3.42a.58.58,0,0,1-.67.55H29.45a.63.63,0,0,1-.67-.55l-.49-3.42a10,10,0,0,1-2.2-1.28l-3.23,1.28a.59.59,0,0,1-.79-.24l-2.62-4.52a.64.64,0,0,1,.18-.85l2.75-2.14q-.06-.73-.06-1.28t.06-1.28l-2.75-2.14a.64.64,0,0,1-.18-.85l2.62-4.52a.55.55,0,0,1,.79-.24l3.23,1.28a12.29,12.29,0,0,1,2.2-1.28l.49-3.42a.63.63,0,0,1,.67-.55h5.19a.58.58,0,0,1,.67.55l.49,3.42a10,10,0,0,1,2.2,1.28l3.23-1.28a.59.59,0,0,1,.79.24l2.62,4.52a.64.64,0,0,1-.18.85l-2.75,2.14a6.79,6.79,0,0,1,0,2.56Zm-12.88,2a4.57,4.57,0,1,0-1.34-3.23A4.37,4.37,0,0,0,28.84,118.57Z"/><rect class="cls-2" x="0.25" y="167.07" width="63.59" height="63.59"/><path class="cls-1" d="M43.37,196.14a3.1,3.1,0,1,1,0,6.19H41.5v5a2.36,2.36,0,0,1-.73,1.72,2.43,2.43,0,0,1-1.78.73H34.26v-1.87a3.17,3.17,0,0,0-1-2.37,3.32,3.32,0,0,0-2.4-1,3.29,3.29,0,0,0-3.33,3.33v1.87H22.8a2.43,2.43,0,0,1-1.78-.73,2.36,2.36,0,0,1-.73-1.72v-4.73h1.87a3.39,3.39,0,0,0,0-6.78H20.29v-4.73a2.36,2.36,0,0,1,.73-1.72,2.43,2.43,0,0,1,1.78-.73h5v-1.87a3.08,3.08,0,0,1,.91-2.22,2.94,2.94,0,0,1,2.19-.94A3.19,3.19,0,0,1,34,186.79v1.87h5a2.43,2.43,0,0,1,1.78.73,2.36,2.36,0,0,1,.73,1.72v5Z"/><polygon class="cls-2" points="86.94 202.37 63.59 202.37 63.59 195.37 79.94 195.37 79.94 35.3 63.59 35.3 63.59 28.3 86.94 28.3 86.94 202.37"/><line class="cls-2" x1="63.59" y1="115.33" x2="105.77" y2="115.33"/><rect class="cls-2" x="63.59" y="111.83" width="42.18" height="7"/></g></g></svg>